<?xml version="1.0" encoding="utf-8"?>
<!-- Generator: Adobe Illustrator 15.0.1, SVG Export Plug-In . SVG Version: 6.00 Build 0)  -->
<!DOCTYPE svg PUBLIC "-//W3C//DTD SVG 1.1//EN" "http://www.w3.org/Graphics/SVG/1.1/DTD/svg11.dtd">
<svg version="1.1" id="Layer_1" xmlns="http://www.w3.org/2000/svg" xmlns:xlink="http://www.w3.org/1999/xlink" x="0px" y="0px"
	 width="350px" height="27px" viewBox="0 0 350 27" enable-background="new 0 0 350 27" xml:space="preserve">
<g>
	<g>
		<path fill="#BDBDC0" d="M1.433,22.654V3.332h1.32v19.322H1.433z"/>
		<path fill="#BDBDC0" d="M25.789,22.654l-5.659-8.006h-5.812v8.006h-1.32V3.332h7.462c3.831,0,6.343,2.262,6.343,5.492V8.88
			c0,3.229-2.208,5.08-5.203,5.521l5.864,8.254H25.789z M25.484,8.88c0-2.594-1.877-4.224-5.101-4.224h-6.065v8.695h5.99
			c2.97,0,5.177-1.629,5.177-4.417V8.88z"/>
		<path fill="#BDBDC0" d="M51.545,22.654l-2.259-5.412H38.804l-2.259,5.412h-1.37l8.274-19.461h1.268l8.273,19.461H51.545z
			 M44.058,4.767l-4.695,11.18h9.365L44.058,4.767z"/>
		<path fill="#BDBDC0" d="M75.148,22.654V3.332h1.32v17.996h10.432v1.326H75.148z"/>
		<path fill="#BDBDC0" d="M96.112,22.654V3.332h1.32v19.322H96.112z"/>
		<path fill="#BDBDC0" d="M114.334,15.45h-4.796v7.204h-1.32V3.332h6.445c3.909,0,6.599,2.18,6.599,5.907v0.055
			C121.262,13.352,118.04,15.45,114.334,15.45z M119.944,9.321c0-3.064-2.184-4.665-5.382-4.665h-5.024v9.468h4.872
			c3.299,0,5.534-1.876,5.534-4.748V9.321z"/>
		<path fill="#BDBDC0" d="M136.364,15.45h-4.796v7.204h-1.319V3.332h6.445c3.91,0,6.599,2.18,6.599,5.907v0.055
			C143.292,13.352,140.069,15.45,136.364,15.45z M141.972,9.321c0-3.064-2.182-4.665-5.379-4.665h-5.025v9.468h4.873
			c3.299,0,5.532-1.876,5.532-4.748V9.321z"/>
		<path fill="#BDBDC0" d="M165.322,22.654l-7.31-9.773l-4.415,4.859v4.914h-1.321V3.332h1.321v12.696l11.318-12.696h1.802
			l-7.767,8.529l8.097,10.793H165.322z"/>
		<path fill="#BDBDC0" d="M175.754,22.654V3.332h12.639v1.324h-11.319v7.591h10.177v1.325h-10.177v7.755h11.446v1.326H175.754z"/>
		<path fill="#BDBDC0" d="M217.174,22.93c-2.842,0-5.026-1.021-7.158-3.093l0.864-1.075c1.954,1.961,3.756,2.871,6.369,2.871
			c2.664,0,4.492-1.63,4.492-3.838V17.74c0-2.042-0.989-3.23-5.024-4.113c-4.264-0.939-5.991-2.512-5.991-5.439V8.134
			c0-2.871,2.412-5.079,5.712-5.079c2.59,0,4.289,0.774,6.093,2.347l-0.839,1.132c-1.674-1.574-3.351-2.181-5.306-2.181
			c-2.612,0-4.34,1.629-4.34,3.644v0.056c0,2.043,0.966,3.284,5.18,4.222c4.109,0.911,5.836,2.512,5.836,5.327v0.057
			C223.062,20.775,220.597,22.93,217.174,22.93z"/>
		<path fill="#BDBDC0" d="M237.452,4.656v17.998h-1.32V4.656h-6.189V3.332h13.703v1.324H237.452z"/>
		<path fill="#BDBDC0" d="M258.72,22.957c-4.265,0-7.283-2.926-7.283-8.336V3.332h1.318v11.151c0,4.556,2.26,7.176,6.014,7.176
			c3.606,0,5.915-2.373,5.915-7.038V3.332h1.321v11.123C266.005,20.003,263.033,22.957,258.72,22.957z"/>
		<path fill="#BDBDC0" d="M281.933,22.654h-5.914V3.332h5.914c5.582,0,9.442,4.167,9.442,9.604v0.057
			C291.375,18.431,287.515,22.654,281.933,22.654z M290.003,12.993c0-4.582-3.122-8.336-8.07-8.336h-4.592v16.672h4.592
			c4.948,0,8.07-3.67,8.07-8.28V12.993z"/>
		<path fill="#BDBDC0" d="M300.704,22.654V3.332h1.32v19.322H300.704z"/>
		<path fill="#BDBDC0" d="M320.315,22.985c-5.381,0-8.91-4.665-8.91-9.937v-0.056c0-5.272,3.58-9.993,8.96-9.993
			c5.381,0,8.909,4.664,8.909,9.936c0.025,0.029,0.025,0.029,0,0.057C329.274,18.265,325.694,22.985,320.315,22.985z
			 M327.902,12.993c0-4.776-3.194-8.695-7.587-8.695c-4.392,0-7.539,3.864-7.539,8.638v0.057c0,4.775,3.198,8.695,7.589,8.695
			c4.393,0,7.537-3.864,7.537-8.639V12.993z"/>
		<path fill="#BDBDC0" d="M344.112,22.93c-2.844,0-5.026-1.021-7.158-3.093l0.861-1.075c1.957,1.961,3.757,2.871,6.372,2.871
			c2.665,0,4.492-1.63,4.492-3.838V17.74c0-2.042-0.989-3.23-5.024-4.113c-4.266-0.939-5.991-2.512-5.991-5.439V8.134
			c0-2.871,2.411-5.079,5.713-5.079c2.588,0,4.287,0.774,6.089,2.347l-0.836,1.132c-1.677-1.574-3.351-2.181-5.305-2.181
			c-2.615,0-4.341,1.629-4.341,3.644v0.056c0,2.043,0.964,3.284,5.177,4.222c4.113,0.911,5.839,2.512,5.839,5.327v0.057
			C350,20.775,347.537,22.93,344.112,22.93z"/>
	</g>
</g>
</svg>
